<svg xmlns="http://www.w3.org/2000/svg" width="860" height="480">
<rect width="100%" height="100%" fill="white"/>
<text x="430.0" y="28" text-anchor="middle" font-size="20" font-family="Arial">Parameter trade-off at 8 signers</text>
<line x1="80" y1="420.0" x2="840" y2="420.0" stroke="#eeeeee"/>
<text x="70" y="424.0" text-anchor="end" font-size="11" font-family="Arial">0.0</text>
<line x1="80" y1="346.0" x2="840" y2="346.0" stroke="#eeeeee"/>
<text x="70" y="350.0" text-anchor="end" font-size="11" font-family="Arial">265.9</text>
<line x1="80" y1="272.0" x2="840" y2="272.0" stroke="#eeeeee"/>
<text x="70" y="276.0" text-anchor="end" font-size="11" font-family="Arial">531.8</text>
<line x1="80" y1="198.0" x2="840" y2="198.0" stroke="#eeeeee"/>
<text x="70" y="202.0" text-anchor="end" font-size="11" font-family="Arial">797.6</text>
<line x1="80" y1="124.0" x2="840" y2="124.0" stroke="#eeeeee"/>
<text x="70" y="128.0" text-anchor="end" font-size="11" font-family="Arial">1063.5</text>
<line x1="80" y1="50.0" x2="840" y2="50.0" stroke="#eeeeee"/>
<text x="70" y="54.0" text-anchor="end" font-size="11" font-family="Arial">1329.4</text>
<line x1="80.0" y1="50" x2="80.0" y2="420" stroke="#f3f3f3"/>
<text x="80.0" y="440" text-anchor="middle" font-size="11" font-family="Arial">107</text>
<line x1="396.7" y1="50" x2="396.7" y2="420" stroke="#f3f3f3"/>
<text x="396.7" y="440" text-anchor="middle" font-size="11" font-family="Arial">167</text>
<line x1="840.0" y1="50" x2="840.0" y2="420" stroke="#f3f3f3"/>
<text x="840.0" y="440" text-anchor="middle" font-size="11" font-family="Arial">251</text>
<line x1="80" y1="420" x2="840" y2="420" stroke="#333"/>
<line x1="80" y1="50" x2="80" y2="420" stroke="#333"/>
<polyline points="80.0,400.0 396.7,368.4 840.0,309.2" fill="none" stroke="#1f77b4" stroke-width="2.5"/>
<circle cx="80.0" cy="400.0" r="3.5" fill="#1f77b4"/>
<circle cx="396.7" cy="368.4" r="3.5" fill="#1f77b4"/>
<circle cx="840.0" cy="309.2" r="3.5" fill="#1f77b4"/>
<line x1="620" y1="70" x2="640" y2="70" stroke="#1f77b4" stroke-width="2.5"/>
<text x="648" y="74" font-size="12" font-family="Arial">Verification</text>
<polyline points="80.0,258.6 396.7,191.8 840.0,98.3" fill="none" stroke="#ff7f0e" stroke-width="2.5"/>
<circle cx="80.0" cy="258.6" r="3.5" fill="#ff7f0e"/>
<circle cx="396.7" cy="191.8" r="3.5" fill="#ff7f0e"/>
<circle cx="840.0" cy="98.3" r="3.5" fill="#ff7f0e"/>
<line x1="620" y1="90" x2="640" y2="90" stroke="#ff7f0e" stroke-width="2.5"/>
<text x="648" y="94" font-size="12" font-family="Arial">Signature size</text>
<text x="460.0" y="465" text-anchor="middle" font-size="13" font-family="Arial">Ring degree n</text>
<text x="20" y="235.0" transform="rotate(-90,20,235.0)" text-anchor="middle" font-size="13" font-family="Arial">Verification time (ms) / Signature size (B)</text>
</svg>