<svg xmlns="http://www.w3.org/2000/svg" width="900" height="500">
<rect width="100%" height="100%" fill="white"/>
<text x="450.0" y="28" text-anchor="middle" font-size="20">Revocation check comparison</text>
<text x="80.0" y="460" text-anchor="middle" font-size="11">2</text>
<text x="194.3" y="460" text-anchor="middle" font-size="11">4</text>
<text x="422.9" y="460" text-anchor="middle" font-size="11">8</text>
<text x="880.0" y="460" text-anchor="middle" font-size="11">16</text>
<line x1="80" y1="440" x2="880" y2="440" stroke="#333"/>
<line x1="80" y1="50" x2="80" y2="440" stroke="#333"/>
<polyline points="80.0,181.1 194.3,252.2 422.9,233.3 880.0,191.3" fill="none" stroke="#1f77b4" stroke-width="2.5"/>
<line x1="600" y1="70" x2="620" y2="70" stroke="#1f77b4" stroke-width="2.5"/>
<text x="628" y="74" font-size="12">IBMS-NTRU</text>
<polyline points="80.0,261.5 194.3,250.8 422.9,225.1 880.0,197.4" fill="none" stroke="#ff7f0e" stroke-width="2.5"/>
<line x1="600" y1="90" x2="620" y2="90" stroke="#ff7f0e" stroke-width="2.5"/>
<text x="628" y="94" font-size="12">CL-NTRU-MS-IRS</text>
<polyline points="80.0,258.8 194.3,210.2 422.9,179.3 880.0,192.6" fill="none" stroke="#2ca02c" stroke-width="2.5"/>
<line x1="600" y1="110" x2="620" y2="110" stroke="#2ca02c" stroke-width="2.5"/>
<text x="628" y="114" font-size="12">NI-IBMS-PKA</text>
<polyline points="80.0,257.7 194.3,218.3 422.9,100.9 880.0,183.1" fill="none" stroke="#d62728" stroke-width="2.5"/>
<line x1="600" y1="130" x2="620" y2="130" stroke="#d62728" stroke-width="2.5"/>
<text x="628" y="134" font-size="12">CLSAS-NTRU</text>
<text x="480.0" y="485" text-anchor="middle" font-size="13">Number of signers</text>
<text x="20" y="245.0" transform="rotate(-90,20,245.0)" text-anchor="middle" font-size="13">Revoke check time (ms)</text>
</svg>