<svg xmlns="http://www.w3.org/2000/svg" width="860" height="480">
<rect width="100%" height="100%" fill="white"/>
<text x="430.0" y="28" text-anchor="middle" font-size="20" font-family="Arial">Signature size comparison</text>
<line x1="80" y1="420.0" x2="840" y2="420.0" stroke="#eeeeee"/>
<text x="70" y="424.0" text-anchor="end" font-size="11" font-family="Arial">0.0</text>
<line x1="80" y1="346.0" x2="840" y2="346.0" stroke="#eeeeee"/>
<text x="70" y="350.0" text-anchor="end" font-size="11" font-family="Arial">266.8</text>
<line x1="80" y1="272.0" x2="840" y2="272.0" stroke="#eeeeee"/>
<text x="70" y="276.0" text-anchor="end" font-size="11" font-family="Arial">533.6</text>
<line x1="80" y1="198.0" x2="840" y2="198.0" stroke="#eeeeee"/>
<text x="70" y="202.0" text-anchor="end" font-size="11" font-family="Arial">800.4</text>
<line x1="80" y1="124.0" x2="840" y2="124.0" stroke="#eeeeee"/>
<text x="70" y="128.0" text-anchor="end" font-size="11" font-family="Arial">1067.2</text>
<line x1="80" y1="50.0" x2="840" y2="50.0" stroke="#eeeeee"/>
<text x="70" y="54.0" text-anchor="end" font-size="11" font-family="Arial">1334.0</text>
<line x1="80.0" y1="50" x2="80.0" y2="420" stroke="#f3f3f3"/>
<text x="80.0" y="440" text-anchor="middle" font-size="11" font-family="Arial">2</text>
<line x1="188.6" y1="50" x2="188.6" y2="420" stroke="#f3f3f3"/>
<text x="188.6" y="440" text-anchor="middle" font-size="11" font-family="Arial">4</text>
<line x1="405.7" y1="50" x2="405.7" y2="420" stroke="#f3f3f3"/>
<text x="405.7" y="440" text-anchor="middle" font-size="11" font-family="Arial">8</text>
<line x1="840.0" y1="50" x2="840.0" y2="420" stroke="#f3f3f3"/>
<text x="840.0" y="440" text-anchor="middle" font-size="11" font-family="Arial">16</text>
<line x1="80" y1="420" x2="840" y2="420" stroke="#333"/>
<line x1="80" y1="50" x2="80" y2="420" stroke="#333"/>
<polyline points="80.0,290.7 188.6,280.2 405.7,259.1 840.0,217.0" fill="none" stroke="#1f77b4" stroke-width="2.5"/>
<circle cx="80.0" cy="290.7" r="3.5" fill="#1f77b4"/>
<circle cx="188.6" cy="280.2" r="3.5" fill="#1f77b4"/>
<circle cx="405.7" cy="259.1" r="3.5" fill="#1f77b4"/>
<circle cx="840.0" cy="217.0" r="3.5" fill="#1f77b4"/>
<line x1="580" y1="70" x2="600" y2="70" stroke="#1f77b4" stroke-width="2.5"/>
<text x="608" y="74" font-size="12" font-family="Arial">IBMS-NTRU size</text>
<polyline points="80.0,172.0 188.6,161.5 405.7,140.4 840.0,98.3" fill="none" stroke="#ff7f0e" stroke-width="2.5"/>
<circle cx="80.0" cy="172.0" r="3.5" fill="#ff7f0e"/>
<circle cx="188.6" cy="161.5" r="3.5" fill="#ff7f0e"/>
<circle cx="405.7" cy="140.4" r="3.5" fill="#ff7f0e"/>
<circle cx="840.0" cy="98.3" r="3.5" fill="#ff7f0e"/>
<line x1="580" y1="90" x2="600" y2="90" stroke="#ff7f0e" stroke-width="2.5"/>
<text x="608" y="94" font-size="12" font-family="Arial">CL-NTRU-MS-IRS size</text>
<text x="460.0" y="465" text-anchor="middle" font-size="13" font-family="Arial">Number of signers</text>
<text x="20" y="235.0" transform="rotate(-90,20,235.0)" text-anchor="middle" font-size="13" font-family="Arial">Signature size (bytes)</text>
</svg>