<svg xmlns="http://www.w3.org/2000/svg" width="860" height="480">
<rect width="100%" height="100%" fill="white"/>
<text x="430.0" y="28" text-anchor="middle" font-size="20" font-family="Arial">Verification runtime comparison</text>
<line x1="80" y1="420.0" x2="840" y2="420.0" stroke="#eeeeee"/>
<text x="70" y="424.0" text-anchor="end" font-size="11" font-family="Arial">0.0</text>
<line x1="80" y1="346.0" x2="840" y2="346.0" stroke="#eeeeee"/>
<text x="70" y="350.0" text-anchor="end" font-size="11" font-family="Arial">34.1</text>
<line x1="80" y1="272.0" x2="840" y2="272.0" stroke="#eeeeee"/>
<text x="70" y="276.0" text-anchor="end" font-size="11" font-family="Arial">68.1</text>
<line x1="80" y1="198.0" x2="840" y2="198.0" stroke="#eeeeee"/>
<text x="70" y="202.0" text-anchor="end" font-size="11" font-family="Arial">102.2</text>
<line x1="80" y1="124.0" x2="840" y2="124.0" stroke="#eeeeee"/>
<text x="70" y="128.0" text-anchor="end" font-size="11" font-family="Arial">136.2</text>
<line x1="80" y1="50.0" x2="840" y2="50.0" stroke="#eeeeee"/>
<text x="70" y="54.0" text-anchor="end" font-size="11" font-family="Arial">170.3</text>
<line x1="80.0" y1="50" x2="80.0" y2="420" stroke="#f3f3f3"/>
<text x="80.0" y="440" text-anchor="middle" font-size="11" font-family="Arial">2</text>
<line x1="188.6" y1="50" x2="188.6" y2="420" stroke="#f3f3f3"/>
<text x="188.6" y="440" text-anchor="middle" font-size="11" font-family="Arial">4</text>
<line x1="405.7" y1="50" x2="405.7" y2="420" stroke="#f3f3f3"/>
<text x="405.7" y="440" text-anchor="middle" font-size="11" font-family="Arial">8</text>
<line x1="840.0" y1="50" x2="840.0" y2="420" stroke="#f3f3f3"/>
<text x="840.0" y="440" text-anchor="middle" font-size="11" font-family="Arial">16</text>
<line x1="80" y1="420" x2="840" y2="420" stroke="#333"/>
<line x1="80" y1="50" x2="80" y2="420" stroke="#333"/>
<polyline points="80.0,387.9 188.6,361.0 405.7,305.3 840.0,216.3" fill="none" stroke="#1f77b4" stroke-width="2.5"/>
<circle cx="80.0" cy="387.9" r="3.5" fill="#1f77b4"/>
<circle cx="188.6" cy="361.0" r="3.5" fill="#1f77b4"/>
<circle cx="405.7" cy="305.3" r="3.5" fill="#1f77b4"/>
<circle cx="840.0" cy="216.3" r="3.5" fill="#1f77b4"/>
<line x1="580" y1="70" x2="600" y2="70" stroke="#1f77b4" stroke-width="2.5"/>
<text x="608" y="74" font-size="12" font-family="Arial">IBMS-NTRU verify</text>
<polyline points="80.0,370.5 188.6,327.9 405.7,248.2 840.0,98.3" fill="none" stroke="#ff7f0e" stroke-width="2.5"/>
<circle cx="80.0" cy="370.5" r="3.5" fill="#ff7f0e"/>
<circle cx="188.6" cy="327.9" r="3.5" fill="#ff7f0e"/>
<circle cx="405.7" cy="248.2" r="3.5" fill="#ff7f0e"/>
<circle cx="840.0" cy="98.3" r="3.5" fill="#ff7f0e"/>
<line x1="580" y1="90" x2="600" y2="90" stroke="#ff7f0e" stroke-width="2.5"/>
<text x="608" y="94" font-size="12" font-family="Arial">CL-NTRU-MS-IRS verify</text>
<text x="460.0" y="465" text-anchor="middle" font-size="13" font-family="Arial">Number of signers</text>
<text x="20" y="235.0" transform="rotate(-90,20,235.0)" text-anchor="middle" font-size="13" font-family="Arial">Verify time (ms)</text>
</svg>