<svg xmlns="http://www.w3.org/2000/svg" width="900" height="500">
<rect width="100%" height="100%" fill="white"/>
<text x="450.0" y="28" text-anchor="middle" font-size="20" font-family="Arial">Verification runtime comparison</text>
<line x1="80" y1="440.0" x2="880" y2="440.0" stroke="#eeeeee"/>
<text x="70" y="444.0" text-anchor="end" font-size="11" font-family="Arial">0.0</text>
<line x1="80" y1="362.0" x2="880" y2="362.0" stroke="#eeeeee"/>
<text x="70" y="366.0" text-anchor="end" font-size="11" font-family="Arial">33.3</text>
<line x1="80" y1="284.0" x2="880" y2="284.0" stroke="#eeeeee"/>
<text x="70" y="288.0" text-anchor="end" font-size="11" font-family="Arial">66.7</text>
<line x1="80" y1="206.0" x2="880" y2="206.0" stroke="#eeeeee"/>
<text x="70" y="210.0" text-anchor="end" font-size="11" font-family="Arial">100.0</text>
<line x1="80" y1="128.0" x2="880" y2="128.0" stroke="#eeeeee"/>
<text x="70" y="132.0" text-anchor="end" font-size="11" font-family="Arial">133.3</text>
<line x1="80" y1="50.0" x2="880" y2="50.0" stroke="#eeeeee"/>
<text x="70" y="54.0" text-anchor="end" font-size="11" font-family="Arial">166.7</text>
<line x1="80.0" y1="50" x2="80.0" y2="440" stroke="#f3f3f3"/>
<text x="80.0" y="460" text-anchor="middle" font-size="11" font-family="Arial">2</text>
<line x1="194.3" y1="50" x2="194.3" y2="440" stroke="#f3f3f3"/>
<text x="194.3" y="460" text-anchor="middle" font-size="11" font-family="Arial">4</text>
<line x1="422.9" y1="50" x2="422.9" y2="440" stroke="#f3f3f3"/>
<text x="422.9" y="460" text-anchor="middle" font-size="11" font-family="Arial">8</text>
<line x1="880.0" y1="50" x2="880.0" y2="440" stroke="#f3f3f3"/>
<text x="880.0" y="460" text-anchor="middle" font-size="11" font-family="Arial">16</text>
<line x1="80" y1="440" x2="880" y2="440" stroke="#333"/>
<line x1="80" y1="50" x2="80" y2="440" stroke="#333"/>
<polyline points="80.0,406.8 194.3,377.1 422.9,325.3 880.0,217.4" fill="none" stroke="#1f77b4" stroke-width="2.5"/>
<circle cx="80.0" cy="406.8" r="3.5" fill="#1f77b4"/>
<circle cx="194.3" cy="377.1" r="3.5" fill="#1f77b4"/>
<circle cx="422.9" cy="325.3" r="3.5" fill="#1f77b4"/>
<circle cx="880.0" cy="217.4" r="3.5" fill="#1f77b4"/>
<line x1="600" y1="70" x2="620" y2="70" stroke="#1f77b4" stroke-width="2.5"/>
<text x="628" y="74" font-size="12" font-family="Arial">IBMS-NTRU</text>
<polyline points="80.0,384.8 194.3,343.0 422.9,266.6 880.0,100.9" fill="none" stroke="#ff7f0e" stroke-width="2.5"/>
<circle cx="80.0" cy="384.8" r="3.5" fill="#ff7f0e"/>
<circle cx="194.3" cy="343.0" r="3.5" fill="#ff7f0e"/>
<circle cx="422.9" cy="266.6" r="3.5" fill="#ff7f0e"/>
<circle cx="880.0" cy="100.9" r="3.5" fill="#ff7f0e"/>
<line x1="600" y1="90" x2="620" y2="90" stroke="#ff7f0e" stroke-width="2.5"/>
<text x="628" y="94" font-size="12" font-family="Arial">CL-NTRU-MS-IRS</text>
<polyline points="80.0,405.5 194.3,390.1 422.9,365.4 880.0,306.9" fill="none" stroke="#2ca02c" stroke-width="2.5"/>
<circle cx="80.0" cy="405.5" r="3.5" fill="#2ca02c"/>
<circle cx="194.3" cy="390.1" r="3.5" fill="#2ca02c"/>
<circle cx="422.9" cy="365.4" r="3.5" fill="#2ca02c"/>
<circle cx="880.0" cy="306.9" r="3.5" fill="#2ca02c"/>
<line x1="600" y1="110" x2="620" y2="110" stroke="#2ca02c" stroke-width="2.5"/>
<text x="628" y="114" font-size="12" font-family="Arial">NI-IBMS-PKA</text>
<text x="480.0" y="485" text-anchor="middle" font-size="13" font-family="Arial">Number of signers</text>
<text x="20" y="245.0" transform="rotate(-90,20,245.0)" text-anchor="middle" font-size="13" font-family="Arial">Verify time (ms)</text>
</svg>